<svg xmlns="http://www.w3.org/2000/svg" version="1.1" viewBox="737 41 1130 1039">
<path d="M0 0 C369.93 0 739.86 0 1121 0 C1121 329.34 1121 658.68 1121 998 C913.76 998 706.52 998 493 998 C493 1011.53 493 1025.06 493 1039 C327.34 1039 161.68 1039 -9 1039 C-9 892.81 -9 746.62 -9 596 C-6.03 596 -3.06 596 0 596 C0 399.32 0 202.64 0 0 Z M32 32 C32 218.12 32 404.24 32 596 C184.13 596 336.26 596 493 596 C493 717.77 493 839.54 493 965 C689.68 965 886.36 965 1089 965 C1089 657.11 1089 349.22 1089 32 C740.19 32 391.38 32 32 32 Z " fill="#800000" transform="translate(746,41)"/>
<path d="M0 0 C369.93 0 739.86 0 1121 0 C1121 329.34 1121 658.68 1121 998 C913.43 998 705.86 998 492 998 C492 987.11 492 976.22 492 965 C689.01 965 886.02 965 1089 965 C1089 657.11 1089 349.22 1089 32 C740.19 32 391.38 32 32 32 C32 218.45 32 404.9 32 597 C21.44 597 10.88 597 0 597 C0 399.99 0 202.98 0 0 Z " fill="#FEFEFE" transform="translate(746,41)"/>
<path d="M0 0 C3.63230047 2.16755724 6.88045228 4.61671112 10.16015625 7.2890625 C10.49015625 4.3190625 10.82015625 1.3490625 11.16015625 -1.7109375 C14.13015625 -1.7109375 17.10015625 -1.7109375 20.16015625 -1.7109375 C20.16015625 20.3990625 20.16015625 42.5090625 20.16015625 65.2890625 C17.19015625 65.2890625 14.22015625 65.2890625 11.16015625 65.2890625 C10.50015625 62.6490625 9.84015625 60.0090625 9.16015625 57.2890625 C8.50789063 57.77117188 7.855625 58.25328125 7.18359375 58.75 C6.30960938 59.38164063 5.435625 60.01328125 4.53515625 60.6640625 C3.67664062 61.29054688 2.818125 61.91703125 1.93359375 62.5625 C-6.31949405 67.70033776 -16.4302596 67.42108758 -25.83984375 66.2890625 C-34.42752731 63.85788836 -40.99767787 58.74801086 -45.83984375 51.2890625 C-50.81380077 41.91272788 -52.52455047 32.76123231 -50.17578125 22.34375 C-46.96102975 12.30813446 -41.41757505 5.60980321 -32.26953125 0.48046875 C-31.06683594 -0.10927734 -31.06683594 -0.10927734 -29.83984375 -0.7109375 C-29.08316406 -1.08605469 -28.32648438 -1.46117187 -27.546875 -1.84765625 C-19.15098271 -4.52513417 -7.91755051 -3.77543575 0 0 Z " fill="#FBF8F8" transform="translate(1162.83984375,831.7109375)"/>
<path d="M0 0 C2.83203125 2.046875 2.83203125 2.046875 5 4 C5 4.66 5 5.32 5 6 C5.66 6 6.32 6 7 6 C7 2.7 7 -0.6 7 -4 C9.97 -4 12.94 -4 16 -4 C16 18.11 16 40.22 16 63 C13.03 63 10.06 63 7 63 C7 60.03 7 57.06 7 54 C6.38253906 54.47050781 5.76507812 54.94101562 5.12890625 55.42578125 C-5.73063428 63.40927908 -14.72410192 64.96675771 -28 64 C-36.50027265 62.6424025 -43.64586975 57.35711379 -48.875 50.625 C-54.73087895 41.36501149 -55.47776238 30.70831754 -54 20 C-51.33342661 11.1211897 -45.74595499 3.58338647 -37.8515625 -1.33984375 C-25.91912774 -7.57221209 -11.52963488 -6.7094353 0 0 Z " fill="#FCFAFA" transform="translate(917,698)"/>
<path d="M0 0 C3.18110701 2.14296131 6.12410898 4.46449222 9 7 C9.66 4.03 10.32 1.06 11 -2 C13.64 -2 16.28 -2 19 -2 C19 20.11 19 42.22 19 65 C16.03 65 13.06 65 10 65 C9.505 60.545 9.505 60.545 9 56 C7.5459375 57.36125 7.5459375 57.36125 6.0625 58.75 C-3.20400351 66.4629477 -12.15788769 66.99427083 -23.88916016 66.22314453 C-33.06045633 65.25361357 -39.0165155 58.9834845 -45.25 52.75 C-51.57413657 42.81207111 -52.73714968 31.52468815 -50.41015625 20.10546875 C-47.40558985 11.31330439 -40.85004765 4.12217336 -32.625 -0.0625 C-22.72306974 -4.47907524 -9.90765357 -4.88642778 0 0 Z " fill="#FCFAFA" transform="translate(1152,696)"/>
<path d="M0 0 C7.0725326 5.71914673 12.0730827 14.61601126 13.12109375 23.62890625 C13.3300466 34.23633625 11.26250903 43.51983141 4.5 51.9375 C0.80122541 55.76548942 -3.43330232 58.24190283 -8.25 60.4375 C-8.97574219 60.80359375 -9.70148437 61.1696875 -10.44921875 61.546875 C-19.13994721 64.31045393 -31.96634792 63.90211986 -40.1171875 59.8125 C-49.64208022 53.67190982 -54.67212809 46.17111572 -58.25 35.4375 C-59.13893177 23.41506209 -57.71379924 13.85725598 -50.01171875 4.25390625 C-46.8265017 0.96981328 -43.2347438 -1.35334152 -39.25 -3.5625 C-38.65832031 -3.90410156 -38.06664062 -4.24570312 -37.45703125 -4.59765625 C-25.72004624 -10.16818997 -10.36264827 -6.82273598 0 0 Z " fill="#FBF8F8" transform="translate(1032.25,972.5625)"/>
<path d="M0 0 C8.18186338 4.96454744 14.10832006 11.22349978 17.2578125 20.3671875 C18.94105345 29.93332914 18.98378144 41.24577194 13.65234375 49.609375 C7.65983366 57.8841649 0.71949769 63.37456734 -9.34765625 65.609375 C-20.64281891 66.50169285 -29.71259039 66.35232325 -39.34765625 59.609375 C-42.34765625 57.046875 -42.34765625 57.046875 -44.34765625 54.609375 C-45.02828125 53.866875 -45.70890625 53.124375 -46.41015625 52.359375 C-53.08543611 42.88478424 -53.94876585 32.97946665 -52.34765625 21.609375 C-49.72438119 12.94237082 -44.6409396 5.6998133 -36.78515625 1.11328125 C-25.16380313 -4.84941883 -11.96145087 -5.84125721 0 0 Z " fill="#FBF8F8" transform="translate(1108.34765625,969.390625)"/>
<path d="M0 0 C3.63 0 7.26 0 11 0 C20.90251595 18.9972738 29.37235876 38.74756741 37.828125 58.421875 C38.76378414 60.88082529 38.76378414 60.88082529 40 62 C49.46231977 41.38927483 58.84699708 20.75027367 68 0 C71.63 0 75.26 0 79 0 C80.56511055 4.35803099 81.55950851 8.58400502 82.32861328 13.14770508 C82.44594818 13.83638168 82.56328308 14.52505829 82.68417358 15.23460388 C83.0678881 17.49543467 83.44444263 19.75738401 83.8203125 22.01953125 C84.08628458 23.60368863 84.35247259 25.18780977 84.61886597 26.77189636 C85.17516913 30.08737711 85.72771769 33.40345772 86.27783203 36.7199707 C86.98011276 40.95101413 87.69341811 45.18011333 88.40980721 49.40878773 C88.96227722 52.67921272 89.50793421 55.95074788 90.05169296 59.22263145 C90.31173965 60.78138057 90.57405989 62.33975228 90.83877945 63.89771461 C92.15004906 71.63313155 93.36213695 79.12102947 93 87 C89.37 87 85.74 87 82 87 C80.69094789 79.28146667 79.38608152 71.56225348 78.08848572 63.84178734 C77.48573659 60.25654803 76.88118861 56.67163182 76.27246094 53.08740234 C75.68461365 49.62571059 75.10158152 46.16323866 74.52182007 42.70018387 C74.19274389 40.74213931 73.85874057 38.78492489 73.5246582 36.82772827 C73.22434692 35.02654037 73.22434692 35.02654037 72.91796875 33.18896484 C72.74031982 32.13639496 72.5626709 31.08382507 72.37963867 29.99935913 C71.99566572 26.96575678 71.93294205 24.05431111 72 21 C71.34 21 70.68 21 70 21 C69.74449371 21.82056129 69.74449371 21.82056129 69.48382568 22.65769958 C67.68748004 28.25432567 65.51842029 33.53393846 63.015625 38.84765625 C62.63694275 39.6626207 62.2582605 40.47758514 61.86810303 41.31724548 C60.66662112 43.90114737 59.45871911 46.48197677 58.25 49.0625 C56.66933014 52.44803677 55.09155711 55.83491169 53.515625 59.22265625 C53.13353882 60.04327545 52.75145264 60.86389465 52.35778809 61.7093811 C48.78052106 69.41914359 45.36307643 77.1948034 42 85 C40.68 85 39.36 85 38 85 C28.13548114 63.7504607 18.33120344 42.49018605 9 21 C7.75281229 28.02478043 6.50795843 35.04997169 5.26464844 42.07543945 C4.84232134 44.46029801 4.41948005 46.84506558 3.99609375 49.22973633 C3.38402901 52.67765289 2.77387735 56.12590363 2.1640625 59.57421875 C1.97752106 60.62268478 1.79097961 61.67115082 1.5987854 62.75138855 C0.44536627 69.28662379 -0.59360494 75.82931711 -1.54092407 82.39778137 C-2 85 -2 85 -3 87 C-6.63 87 -10.26 87 -14 87 C-11.61010212 69.25798123 -8.66334083 51.61492124 -5.69482422 33.96295166 C-5.04925988 30.12079261 -4.40660618 26.27814674 -3.76367188 22.43554688 C-2.5118845 14.95656507 -1.25699332 7.4781088 0 0 Z " fill="#FAF6F6" transform="translate(758,674)"/>
<path d="M0 0 C8.6877372 5.26576877 13.79847564 12.38290784 17.546875 21.75390625 C18.171875 25.31640625 18.171875 25.31640625 18.171875 36.31640625 C-0.638125 36.31640625 -19.448125 36.31640625 -38.828125 36.31640625 C-35.14077645 45.53477763 -33.35453983 49.94388582 -24.828125 54.31640625 C-17.89200395 56.41646849 -10.95356144 56.2305014 -4.390625 53.12890625 C-1.25984539 51.4194322 0.03569642 50.52067412 2.046875 47.50390625 C4.171875 45.31640625 4.171875 45.31640625 7.0703125 45.00390625 C10.11991669 45.00390625 13.13039253 45.10120702 16.171875 45.31640625 C12.1503808 54.69989271 6.0939935 61.54650956 -3.51171875 65.4609375 C-13.94406287 68.15196619 -24.87253474 67.7525224 -34.2734375 62.21875 C-41.86344873 56.5668609 -48.00428079 48.77027759 -49.828125 39.31640625 C-50.83412619 27.35936355 -49.282339 17.42697667 -41.515625 7.87890625 C-30.96391901 -3.15450806 -13.98810594 -6.73588323 0 0 Z " fill="#FBF7F7" transform="translate(956.828125,831.68359375)"/>
<path d="M0 0 C0.51046875 0.39832031 1.0209375 0.79664063 1.546875 1.20703125 C2.206875 -1.10296875 2.866875 -3.41296875 3.546875 -5.79296875 C6.846875 -5.79296875 10.146875 -5.79296875 13.546875 -5.79296875 C13.546875 16.31703125 13.546875 38.42703125 13.546875 61.20703125 C10.246875 61.20703125 6.946875 61.20703125 3.546875 61.20703125 C2.886875 58.89703125 2.226875 56.58703125 1.546875 54.20703125 C1.01320313 54.60535156 0.47953125 55.00367188 -0.0703125 55.4140625 C-10.04889908 62.50956265 -19.92276686 64.77657094 -32.0859375 62.7734375 C-41.18749493 60.4766495 -48.234743 55.55928988 -53.453125 47.76953125 C-58.8964296 38.33020068 -59.85996164 28.82660958 -57.87109375 18.0546875 C-55.18646899 8.52978596 -49.44596373 1.30868394 -40.953125 -3.79296875 C-27.365981 -10.48020658 -12.16346234 -8.86379968 0 0 Z M-41.328125 12.08203125 C-46.61910873 18.65056459 -47.20230952 24.96600153 -46.453125 33.20703125 C-44.83102449 40.70924612 -40.7289524 44.82180278 -34.390625 48.95703125 C-28.93849933 52.3686584 -23.65340343 53.03046713 -17.28125 51.78125 C-11.17572138 50.06538592 -6.4443296 47.1802704 -2.453125 42.20703125 C1.44629252 34.73772446 2.71746773 27.87219341 0.421875 19.70703125 C-1.92621632 13.21655241 -6.1652712 8.18548831 -12.453125 5.20703125 C-23.45079508 1.76109462 -33.56678556 3.77994275 -41.328125 12.08203125 Z " fill="#FFFFFF" transform="translate(1498.453125,835.79296875)"/>
<path d="M0 0 C0.79575439 0.00563965 1.59150879 0.0112793 2.41137695 0.01708984 C10.85859129 0.1920091 17.32377563 1.65451541 23.6171875 7.58203125 C27.35169361 11.86800588 29.34468984 16.09398265 29.375 21.8125 C29.2925 22.9675 29.21 24.1225 29.125 25.3125 C25.495 25.3125 21.865 25.3125 18.125 25.3125 C17.7846875 23.45625 17.7846875 23.45625 17.4375 21.5625 C16.64550112 18.4277352 16.17626688 17.36661504 13.875 14.9375 C7.21872292 11.00424536 0.7445375 10.47496371 -6.875 11.3125 C-10.47973612 12.5393751 -13.03010466 14.52211404 -15.8125 17.125 C-17.37889384 20.3499285 -17.24739163 22.77477952 -16.875 26.3125 C-15.57890935 30.02795985 -13.79318258 31.60680651 -10.375 33.3125 C-5.53005097 35.29343975 -0.50163338 36.47709937 4.5625 37.75 C15.62038267 40.55924806 24.41389209 43.50237896 31.125 53.3125 C33.20986175 59.56708524 33.34191582 67.59538478 30.625 73.6875 C26.90559384 79.92607842 20.81138283 84.63794687 14.125 87.3125 C3.76876233 89.9061581 -8.45707588 89.54128255 -17.875 84.3125 C-24.64564817 79.55047745 -28.73302275 74.38610655 -30.875 66.3125 C-30.875 64.3325 -30.875 62.3525 -30.875 60.3125 C-26.915 60.3125 -22.955 60.3125 -18.875 60.3125 C-18.483125 61.88 -18.09125 63.4475 -17.6875 65.0625 C-16.31704491 69.59652899 -15.1460592 71.928653 -10.875 74.3125 C-3.82880067 77.0565976 4.52802457 78.0346505 11.7421875 75.33203125 C15.39086496 73.16019943 17.55217707 71.33027991 19.125 67.3125 C19.8985492 62.76077368 19.84055879 59.38583818 17.25 55.5 C11.04523274 51.15666292 4.37330426 49.33912415 -2.90942383 47.55883789 C-20.637294 43.20177081 -20.637294 43.20177081 -26.375 35.125 C-29.4786715 29.30561594 -29.56762908 23.78777654 -28.875 17.3125 C-26.67370183 10.52344955 -22.15556911 5.62664114 -15.875 2.3125 C-10.48935183 0.39468382 -5.6449045 -0.04165981 0 0 Z " fill="#FBF7F7" transform="translate(774.875,946.6875)"/>
<path d="M0 0 C0 4.62 0 9.24 0 14 C6.93 14 13.86 14 21 14 C21.33 36.11 21.66 58.22 22 81 C1.54357796 81 1.54357796 81 -5.6585083 74.55955505 C-10.69833944 68.70048479 -11.57590209 61.80635358 -11.390625 54.37109375 C-11.38213531 53.05843285 -11.38213531 53.05843285 -11.37347412 51.71925354 C-11.35130435 48.95808294 -11.30114771 46.19827007 -11.25 43.4375 C-11.2299098 41.5514512 -11.21166347 39.6653818 -11.1953125 37.77929688 C-11.15150368 33.18568466 -11.08261491 28.5930715 -11 24 C-14.96 24 -18.92 24 -23 24 C-23 21 -23 21 -21.01171875 18.83203125 C-20.55458496 18.40229004 -20.09745117 17.97254883 -19.62646484 17.52978516 C-17.72409198 15.7404924 -15.90628184 13.88055921 -14.08203125 12.01171875 C-12.65895533 10.57021262 -11.23577606 9.12880852 -9.8125 7.6875 C-9.08869141 6.94693359 -8.36488281 6.20636719 -7.61914062 5.44335938 C-6.92626953 4.74404297 -6.23339844 4.04472656 -5.51953125 3.32421875 C-4.89151611 2.68572998 -4.26350098 2.04724121 -3.61645508 1.3894043 C-2 0 -2 0 0 0 Z " fill="#FAF5F5" transform="translate(1218,816)"/>
<path d="M0 0 C7.30990988 6.52810134 11.61074066 14.68754476 12.39453125 24.5 C12.5988093 36.0246864 9.47520194 45.19102581 1.5625 53.7109375 C-6.52189578 61.19509972 -15.93460757 63.29053232 -26.6796875 63.171875 C-37.00728154 62.46273933 -45.13721519 58.06203233 -52.12109375 50.58203125 C-59.55415311 41.80810628 -60.72171283 32.21025932 -59.80859375 20.95703125 C-57.52243273 10.884859 -52.31243418 3.12432758 -43.88671875 -2.79296875 C-30.09258967 -11.09018925 -12.65757416 -9.65063841 0 0 Z M-42.68359375 11.83203125 C-48.14204116 18.6208975 -48.71638942 25.42823489 -47.80859375 33.95703125 C-45.73409704 40.78605014 -41.32354135 45.57095149 -35.24609375 49.20703125 C-29.33280586 52.21743236 -23.81032228 52.99660392 -17.3125 51.30859375 C-10.49474859 48.88035352 -5.44750861 45.40548773 -1.71484375 39.11328125 C1.06708049 32.82819316 1.42504375 25.76760041 -0.6875 19.2421875 C-3.66472067 12.70802332 -7.63013077 8.02134856 -14.1015625 4.82421875 C-25.01948835 1.32670138 -35.03164538 3.66369372 -42.68359375 11.83203125 Z " fill="#FFFFFF" transform="translate(1338.80859375,836.04296875)"/>
<path d="M0 0 C3.3 0 6.6 0 10 0 C10.33 10.23 10.66 20.46 11 31 C13.31 29.02 15.62 27.04 18 25 C25.07114138 20.58053664 34.26555731 20.82168986 42.28125 22.46875 C48.50618656 24.84554396 54.15966696 30.02035149 57 36 C59.44596341 41.67351053 59.25673875 47.02235726 59.1953125 53.0859375 C59.1924826 54.14285797 59.18965271 55.19977844 59.18673706 56.28872681 C59.1755785 59.65093501 59.15048159 63.01287286 59.125 66.375 C59.11496462 68.66015239 59.10583975 70.94530898 59.09765625 73.23046875 C59.07565327 78.82041602 59.04115296 84.41016223 59 90 C55.37 90 51.74 90 48 90 C47.98541748 88.67347412 47.97083496 87.34694824 47.95581055 85.98022461 C47.89765878 81.0393636 47.82042666 76.09895028 47.73754883 71.15844727 C47.70437883 69.02375578 47.67632242 66.88897827 47.65356445 64.75415039 C47.61987283 61.67817669 47.56754897 58.60298574 47.51171875 55.52734375 C47.50532883 54.57915268 47.4989389 53.63096161 47.49235535 52.65403748 C47.33602697 45.54290574 46.17981486 40.76895402 41.6875 35.0625 C36.75214037 31.30814582 29.80934822 32.24795848 24 33 C21.25127805 34.00650228 20.18798618 34.92717098 18 37 C17.278125 37.5775 16.55625 38.155 15.8125 38.75 C11.00672563 44.71578887 10.54315569 51.40296527 10.48828125 58.75 C10.47033005 59.64871826 10.45237885 60.54743652 10.43388367 61.47338867 C10.38013695 64.31554614 10.34600026 67.15753917 10.3125 70 C10.2792954 71.93882479 10.24480287 73.87762798 10.20898438 75.81640625 C10.12443134 80.54415147 10.05745133 85.27185094 10 90 C6.7 90 3.4 90 0 90 C0 60.3 0 30.6 0 0 Z " fill="#FCF9F9" transform="translate(900,944)"/>
<path d="M0 0 C6.46328935 3.66357142 11.4013064 8.86365736 13.6875 16 C14.81210465 25.36298753 12.89685471 32.01996683 7.875 39.8125 C2.56370464 45.12379536 -3.28779674 47.13568135 -10.6875 47.1875 C-17.84353098 47.10196975 -22.58311457 45.359315 -28.3125 41 C-34.48420737 33.97111105 -35.76166677 28.34225833 -35.6484375 19.13671875 C-35.00701691 13.14764048 -32.70150986 8.32157813 -28.375 4.1171875 C-19.90501361 -2.52405183 -10.08926844 -4.58182374 0 0 Z " fill="#810202" transform="translate(1020.3125,978)"/>
<path d="M0 0 C4.99796156 3.54837485 8.32696349 7.6999247 10.1953125 13.55859375 C10.86340663 20.82086376 11.50509312 29.28982194 7.1953125 35.55859375 C2.16849001 40.98252553 -2.52835937 45.11920998 -10.07421875 45.89453125 C-19.18830138 45.99501728 -24.53353653 45.05317182 -31.5546875 39.30859375 C-37.46591346 32.08376202 -38.67067582 25.61189933 -38.25390625 16.3515625 C-37.65447018 11.29023708 -36.31952394 8.20292417 -32.8046875 4.55859375 C-32.33546875 4.07132813 -31.86625 3.5840625 -31.3828125 3.08203125 C-22.36321923 -5.21017547 -10.51760849 -5.96899646 0 0 Z " fill="#810202" transform="translate(1104.8046875,979.44140625)"/>
<path d="M0 0 C1.051875 0.5775 2.10375 1.155 3.1875 1.75 C4.734375 2.5853125 4.734375 2.5853125 6.3125 3.4375 C10.731617 6.99200715 13.40065643 11.3894693 15.1875 16.75 C16.05408816 26.21143797 14.46661922 32.66171155 9.375 40.5625 C3.94996519 45.98753481 -2.03106324 47.87714081 -9.5625 48.0625 C-16.82102496 47.99177138 -21.13527095 46.06215236 -26.5625 41.375 C-32.41617445 34.54571314 -34.25884226 29.56226167 -34.15234375 20.69921875 C-33.39757509 14.14921487 -30.2673635 8.73896632 -25.4375 4.3125 C-18.0084247 -1.31510425 -8.92482706 -3.60159318 0 0 Z " fill="#810202" transform="translate(1156.8125,840.25)"/>
<path d="M0 0 C6.19442652 3.51548643 10.44648134 8.10621752 12.625 14.9375 C13.29382968 22.20776545 13.92823705 30.65856292 9.625 36.9375 C4.30810477 42.77565947 -0.49670824 46.35602231 -8.48828125 47.30859375 C-16.9118635 47.48344222 -22.63238061 46.274971 -28.9296875 40.515625 C-35.08940959 33.73628589 -36.00756016 27.26548625 -35.78125 18.3828125 C-34.94814753 11.31746274 -31.88857615 6.85447208 -26.375 2.5 C-18.37055019 -3.16443928 -8.98184683 -4.13083425 0 0 Z " fill="#810202" transform="translate(1147.375,705.0625)"/>
<path d="M0 0 C5.8313542 3.63084318 8.89620251 8.56327492 11 15 C12.18682728 22.83306007 11.14230763 30.18523584 7 37 C2.68922816 41.9370341 -2.79395991 45.58715725 -9.3671875 46.43359375 C-17.82519891 46.44301247 -23.71965661 46.07611229 -29.96484375 40.12890625 C-36.64405041 32.90334322 -37.63587026 26.48626979 -37.37890625 16.8984375 C-36.87788325 11.74358232 -35.5653958 8.69675248 -32 5 C-31.53078125 4.51273438 -31.0615625 4.02546875 -30.578125 3.5234375 C-21.45023903 -4.86832863 -10.83567556 -4.54876483 0 0 Z " fill="#810202" transform="translate(911,706)"/>
<path d="M0 0 C5.80556799 4.73526774 9.16549327 10.20685618 10.72265625 17.5234375 C10.80694107 19.11117056 10.84045573 20.70202932 10.83618164 22.29199219 C10.83610611 23.23266541 10.83603058 24.17333862 10.83595276 25.14251709 C10.83079147 26.14993958 10.82563019 27.15736206 10.8203125 28.1953125 C10.81889755 29.23286682 10.8174826 30.27042114 10.81602478 31.3394165 C10.81043072 34.65078626 10.79787928 37.96208821 10.78515625 41.2734375 C10.78014048 43.51953027 10.77557771 45.76562411 10.77148438 48.01171875 C10.76046323 53.51565109 10.74320264 59.0195328 10.72265625 64.5234375 C7.09265625 64.5234375 3.46265625 64.5234375 -0.27734375 64.5234375 C-0.30707275 62.87529053 -0.30707275 62.87529053 -0.33740234 61.19384766 C-0.41410138 57.0748192 -0.50271358 52.95611479 -0.59472656 48.83740234 C-0.63275299 47.06272836 -0.6676492 45.28798418 -0.69921875 43.51318359 C-0.23162399 25.91303604 -0.23162399 25.91303604 -7.27734375 10.5234375 C-12.04441093 7.19757668 -16.63960438 6.66489851 -22.27734375 7.5234375 C-27.53557708 9.2483606 -31.38894958 11.70944722 -34.27734375 16.5234375 C-36.85979197 22.67388322 -37.73654658 28.30429676 -37.7890625 34.93359375 C-37.8070137 35.78650497 -37.8249649 36.6394162 -37.84346008 37.51817322 C-37.89707542 40.20737961 -37.93130011 42.89641366 -37.96484375 45.5859375 C-37.99806005 47.42385187 -38.03255361 49.26174363 -38.06835938 51.09960938 C-38.15277291 55.5740933 -38.21981423 60.04853047 -38.27734375 64.5234375 C-41.90734375 64.5234375 -45.53734375 64.5234375 -49.27734375 64.5234375 C-49.27734375 42.4134375 -49.27734375 20.3034375 -49.27734375 -2.4765625 C-46.63734375 -2.4765625 -43.99734375 -2.4765625 -41.27734375 -2.4765625 C-40.28734375 -0.1665625 -39.29734375 2.1434375 -38.27734375 4.5234375 C-37.82746094 4.12511719 -37.37757812 3.72679687 -36.9140625 3.31640625 C-26.44884153 -5.30324469 -11.77582691 -7.63509875 0 0 Z " fill="#FFFFFF" transform="translate(1415.27734375,832.4765625)"/>
<path d="M0 0 C6.81466328 4.83664968 11.03634851 11.29644552 12.52905273 19.49243164 C13.04471682 24.10971967 13.08964063 28.62462968 13.0625 33.265625 C13.06108505 34.18795425 13.0596701 35.11028351 13.05821228 36.06056213 C13.05264881 38.98441923 13.04010317 41.9081976 13.02734375 44.83203125 C13.02232403 46.8235666 13.01776195 48.81510315 13.01367188 50.80664062 C13.00269137 55.66930081 12.98545214 60.53190272 12.96484375 65.39453125 C9.33484375 65.39453125 5.70484375 65.39453125 1.96484375 65.39453125 C1.95026123 64.13382813 1.93567871 62.873125 1.9206543 61.57421875 C1.86241888 56.8700001 1.78518812 52.16624752 1.70239258 47.46240234 C1.66926162 45.43155516 1.64119332 43.40061851 1.6184082 41.36962891 C1.58464398 38.44004407 1.53231776 35.51127035 1.4765625 32.58203125 C1.47017258 31.68274902 1.46378265 30.7834668 1.4571991 29.85693359 C1.29362947 22.74791736 0.2105419 17.03322658 -4.53515625 11.45703125 C-9.14737199 7.65195326 -13.96559028 7.93441032 -19.73046875 7.9921875 C-24.7153706 8.59909635 -27.90271306 10.49896384 -31.03515625 14.39453125 C-34.86479143 20.39979414 -35.63492683 25.55222773 -35.64453125 32.58203125 C-35.6610675 33.5251416 -35.67760376 34.46825195 -35.69464111 35.43994141 C-35.74286704 38.42487261 -35.76443548 41.40929531 -35.78515625 44.39453125 C-35.81333718 46.42971273 -35.84326756 48.46487079 -35.875 50.5 C-35.94861916 55.46480184 -35.99834874 60.42932558 -36.03515625 65.39453125 C-39.66515625 65.39453125 -43.29515625 65.39453125 -47.03515625 65.39453125 C-47.03515625 43.28453125 -47.03515625 21.17453125 -47.03515625 -1.60546875 C-44.39515625 -1.60546875 -41.75515625 -1.60546875 -39.03515625 -1.60546875 C-38.37515625 1.36453125 -37.71515625 4.33453125 -37.03515625 7.39453125 C-36.06578125 6.48703125 -35.09640625 5.57953125 -34.09765625 4.64453125 C-24.53418514 -3.39488072 -11.49875099 -6.05986318 0 0 Z " fill="#FAF6F6" transform="translate(1085.03515625,831.60546875)"/>
<path d="M0 0 C4.13399553 3.0465079 7.45255421 5.84478246 8.67578125 10.9921875 C8.96875 13.48046875 8.96875 13.48046875 9.09375 17.54296875 C5.79375 17.54296875 2.49375 17.54296875 -0.90625 17.54296875 C-1.4940625 15.90328125 -1.4940625 15.90328125 -2.09375 14.23046875 C-3.63614361 10.61205719 -5.25842782 9.18448873 -8.90625 7.54296875 C-14.46286751 5.69076291 -20.6146905 5.51157657 -25.96875 8.10546875 C-29.18310267 10.32857321 -29.18310267 10.32857321 -30.03125 14.04296875 C-30.13480842 17.43645059 -30.13480842 17.43645059 -28.84375 19.85546875 C-24.53386338 23.60924096 -18.56661146 24.01949756 -13.09375 24.91796875 C-3.99220647 26.55163242 3.01235086 28.39144593 9 35.859375 C11.55307925 39.78929342 11.65000985 44.02237814 11.09375 48.54296875 C9.24114123 54.90535657 6.58800254 58.88013373 1.09375 62.54296875 C-4.3985568 65.35743442 -8.71279656 66.01109716 -14.84375 65.91796875 C-15.60365234 65.92957031 -16.36355469 65.94117188 -17.14648438 65.953125 C-25.1375849 65.91217999 -31.52705583 63.64971019 -37.4296875 58.21875 C-41.12568378 54.02408756 -41.90625 50.15129042 -41.90625 44.54296875 C-38.60625 44.54296875 -35.30625 44.54296875 -31.90625 44.54296875 C-31.514375 45.45046875 -31.1225 46.35796875 -30.71875 47.29296875 C-28.26620786 51.69063052 -25.67917642 53.95199328 -20.90625 55.54296875 C-13.99781013 56.19141437 -8.30419854 55.13923772 -1.90625 52.54296875 C-1.6569143 50.94181299 -1.43246352 49.33676716 -1.21875 47.73046875 C-1.09113281 46.83714844 -0.96351562 45.94382812 -0.83203125 45.0234375 C-0.67902084 42.52823365 -0.67902084 42.52823365 -2.125 40.80859375 C-4.11987804 39.3911804 -5.73556336 38.75894216 -8.09375 38.10546875 C-8.9703125 37.85796875 -9.846875 37.61046875 -10.75 37.35546875 C-13.12125065 36.74504779 -15.4915029 36.16388807 -17.875 35.60546875 C-18.57085205 35.43974365 -19.2667041 35.27401855 -19.98364258 35.10327148 C-21.35598455 34.77951755 -22.73078473 34.46595575 -24.1081543 34.16430664 C-30.25648951 32.7220857 -35.26393695 30.56427711 -39.34375 25.54296875 C-41.83864035 20.47692503 -41.85927373 15.02103643 -40.90625 9.54296875 C-38.15892889 3.55322627 -33.78331169 0.21436043 -27.90625 -2.45703125 C-18.69743577 -4.79098934 -8.29327463 -4.93449841 0 0 Z " fill="#FBF7F7" transform="translate(1210.90625,969.45703125)"/>
<path d="M0 0 C3.63 0 7.26 0 11 0 C16.75426556 10.40823228 21.98804843 21.03077243 27 31.8125 C27.29071381 32.43499634 27.58142761 33.05749268 27.88095093 33.69885254 C28.71664915 35.49122434 29.54593857 37.28657996 30.375 39.08203125 C30.85710937 40.12593018 31.33921875 41.1698291 31.8359375 42.24536133 C32.7953832 44.51579459 33.50432095 46.59473184 34 49 C34.66 49 35.32 49 36 49 C36.16748245 48.46202286 36.3349649 47.92404572 36.50752258 47.36976624 C38.38687745 41.5155453 40.67854795 35.9607777 43.23046875 30.37109375 C43.8233947 29.05843285 43.8233947 29.05843285 44.42829895 27.71925354 C45.67723573 24.95677696 46.932253 22.1971141 48.1875 19.4375 C49.04142109 17.55161583 49.89494056 15.66554976 50.74804688 13.77929688 C52.82739689 9.18408313 54.91220034 4.5913805 57 0 C60.63 0 64.26 0 68 0 C67.28633295 3.56833527 66.79688366 5.79173051 65.33276367 8.91870117 C64.99076431 9.65614059 64.64876495 10.39358002 64.29640198 11.15336609 C63.92401901 11.94193497 63.55163605 12.73050385 63.16796875 13.54296875 C62.77983505 14.37629227 62.39170135 15.20961578 61.99180603 16.06819153 C60.72878824 18.77703542 59.45826131 21.48228125 58.1875 24.1875 C57.31767101 26.04858256 56.44836971 27.90991184 55.57958984 29.77148438 C54.27763035 32.56086274 52.97520794 35.35001545 51.67059326 38.13815308 C49.17419429 43.47431189 46.69548979 48.81788809 44.24609375 54.17578125 C43.70895752 55.34923096 43.17182129 56.52268066 42.6184082 57.73168945 C41.65751348 59.83459899 40.69883621 61.93852392 39.74291992 64.04370117 C29.91457156 85.48854706 29.91457156 85.48854706 21.4375 89.375 C15.65675719 91.48501472 10.0773041 91.37591572 4 91 C4 87.7 4 84.4 4 81 C4.72445313 80.96261719 5.44890625 80.92523437 6.1953125 80.88671875 C7.16210938 80.82097656 8.12890625 80.75523437 9.125 80.6875 C10.07632812 80.62949219 11.02765625 80.57148437 12.0078125 80.51171875 C16.90295788 79.67455942 20.01233952 78.22606128 23.15234375 74.328125 C24.03599609 72.80445313 24.03599609 72.80445313 24.9375 71.25 C25.54464844 70.24453125 26.15179687 69.2390625 26.77734375 68.203125 C28.72023426 63.11312431 27.52498513 59.27292188 25.48461914 54.32568359 C24.84472051 53.01172287 24.19435011 51.70282491 23.53515625 50.3984375 C23.01113724 49.33188683 23.01113724 49.33188683 22.47653198 48.24378967 C21.34723505 45.9497716 20.204826 43.66255335 19.0625 41.375 C18.28542188 39.80011161 17.50946564 38.22466919 16.73461914 36.64868164 C15.20216709 33.533281 13.66583448 30.41985195 12.12597656 27.30810547 C9.35604746 21.70384108 6.63419935 16.07739586 3.9375 10.4375 C3.52701416 9.58913574 3.11652832 8.74077148 2.69360352 7.86669922 C0 2.23402334 0 2.23402334 0 0 Z " fill="#FBF7F7" transform="translate(1025,694)"/>
<path d="M0 0 C6.58792617 3.95919342 11.57698815 9.08062604 15 16 C15.65625 18.7734375 15.65625 18.7734375 16 21 C12.27371254 21.34693021 8.71420316 21.52752451 5 21 C2.625 18.25 2.625 18.25 1 15 C-4.06031563 10.08024869 -9.88965658 7.89477608 -16.875 7.5 C-23.75374407 7.72292226 -29.60499566 10.60499566 -34.4375 15.4375 C-39.12265837 23.12115973 -40.0445766 29.04226297 -39 38 C-36.95845146 44.60449678 -33.72451614 49.18365591 -28 53 C-21.7139124 56.01989217 -14.29260531 56.15997587 -7.5859375 54.34765625 C-2.03855059 51.85240306 2.28186772 47.43626457 5 42 C8.63 42 12.26 42 16 42 C13.83016273 50.54373426 9.9968283 56.85357139 2.39453125 61.640625 C-7.40565027 66.67823677 -18.87406406 68.20227601 -29.5390625 64.90625 C-39.81972753 60.01317399 -45.74272544 53.50245006 -50 43 C-52.74909142 34.82276629 -52.16677074 23.0437107 -48.44921875 15.30859375 C-38.09446429 -1.18644637 -18.29213169 -8.83176805 0 0 Z " fill="#FBF8F8" transform="translate(869,969)"/>
<path d="M0 0 C5.85405721 4.52757608 9.16708524 10.51163127 11.0859375 17.61328125 C11.47036895 21.30828402 11.43714636 24.96417191 11.37890625 28.67578125 C11.37466141 29.70767578 11.37041656 30.73957031 11.36604309 31.80273438 C11.34935551 35.07319092 11.31172145 38.34301342 11.2734375 41.61328125 C11.25837786 43.84113688 11.2446917 46.06900225 11.23242188 48.296875 C11.19948443 53.73591846 11.14777074 59.17449264 11.0859375 64.61328125 C7.4559375 64.61328125 3.8259375 64.61328125 0.0859375 64.61328125 C0.07135498 63.28675537 0.05677246 61.96022949 0.04174805 60.59350586 C-0.01640372 55.65264485 -0.09363584 50.71223153 -0.17651367 45.77172852 C-0.20968367 43.63703703 -0.23774008 41.50225952 -0.26049805 39.36743164 C-0.29418967 36.29145794 -0.34651353 33.21626699 -0.40234375 30.140625 C-0.40873367 29.19243393 -0.4151236 28.24424286 -0.42170715 27.26731873 C-0.57803553 20.15618699 -1.73424764 15.38223527 -6.2265625 9.67578125 C-11.16192213 5.92142707 -18.10471428 6.86123973 -23.9140625 7.61328125 C-26.66278445 8.61978353 -27.72607632 9.54045223 -29.9140625 11.61328125 C-30.6359375 12.19078125 -31.3578125 12.76828125 -32.1015625 13.36328125 C-36.90733687 19.32907012 -37.37090681 26.01624652 -37.42578125 33.36328125 C-37.44373245 34.26199951 -37.46168365 35.16071777 -37.48017883 36.08666992 C-37.53392555 38.92882739 -37.56806224 41.77082042 -37.6015625 44.61328125 C-37.6347671 46.55210604 -37.66925963 48.49090923 -37.70507812 50.4296875 C-37.78963116 55.15743272 -37.85661117 59.88513219 -37.9140625 64.61328125 C-41.2140625 64.61328125 -44.5140625 64.61328125 -47.9140625 64.61328125 C-47.9140625 42.50328125 -47.9140625 20.39328125 -47.9140625 -2.38671875 C-45.2740625 -2.38671875 -42.6340625 -2.38671875 -39.9140625 -2.38671875 C-39.2540625 0.58328125 -38.5940625 3.55328125 -37.9140625 6.61328125 C-37.41777344 6.14277344 -36.92148437 5.67226563 -36.41015625 5.1875 C-26.11737141 -4.24592519 -12.82884703 -7.56518388 0 0 Z " fill="#FBF8F8" transform="translate(831.9140625,832.38671875)"/>
<path d="M0 0 C0 4.62 0 9.24 0 14 C6.93 14 13.86 14 21 14 C21 17.3 21 20.6 21 24 C14.07 24 7.14 24 0 24 C0.09725299 29.14161181 0.20017921 34.28247664 0.31738281 39.42358398 C0.35551913 41.17025973 0.39039802 42.91700991 0.421875 44.66381836 C0.46786087 47.18370046 0.52579747 49.7030769 0.5859375 52.22265625 C0.59748871 52.99585709 0.60903992 53.76905792 0.62094116 54.56568909 C0.7498987 59.369962 1.3430175 63.47013811 3 68 C6.65133012 70.32180494 10.55897197 70.36721042 14.8125 70.625 C15.97394531 70.69976563 17.13539063 70.77453125 18.33203125 70.8515625 C19.65267578 70.92503906 19.65267578 70.92503906 21 71 C21 74.3 21 77.6 21 81 C11.76812056 81.55391277 3.67270474 81.89524419 -4 76 C-9.45690583 70.43964572 -11.22807524 64.03094282 -11.22659302 56.37405396 C-11.21627045 55.55194427 -11.20594788 54.72983459 -11.1953125 53.8828125 C-11.1924826 53.02565643 -11.18965271 52.16850037 -11.18673706 51.28536987 C-11.17559999 48.56510068 -11.1505076 45.84516859 -11.125 43.125 C-11.11496182 41.27344228 -11.10583744 39.42187936 -11.09765625 37.5703125 C-11.07568188 33.0467464 -11.041197 28.52343023 -11 24 C-14.96 24 -18.92 24 -23 24 C-21.37421773 20.74843546 -20.31030313 19.03436208 -17.91796875 16.50390625 C-17.31533203 15.86259766 -16.71269531 15.22128906 -16.09179688 14.56054688 C-15.46337891 13.90119141 -14.83496094 13.24183594 -14.1875 12.5625 C-13.57068359 11.90701172 -12.95386719 11.25152344 -12.31835938 10.57617188 C-10.55515119 8.70803313 -8.77944307 6.8526627 -7 5 C-6.26064209 4.21471924 -6.26064209 4.21471924 -5.50634766 3.41357422 C-2.22984546 0 -2.22984546 0 0 0 Z " fill="#FAF5F5" transform="translate(877,816)"/>
<path d="M0 0 C3.96 0 7.92 0 12 0 C12 28.71 12 57.42 12 87 C8.04 87 4.08 87 0 87 C0 58.29 0 29.58 0 0 Z " fill="#F4E9E9" transform="translate(750,810)"/>
<path d="M0 0 C3.63 0 7.26 0 11 0 C11 30.03 11 60.06 11 91 C7.37 91 3.74 91 0 91 C0 60.97 0 30.94 0 0 Z " fill="#F9F4F4" transform="translate(1142,943)"/>
<path d="M0 0 C3.63 0 7.26 0 11 0 C11 30.03 11 60.06 11 91 C7.37 91 3.74 91 0 91 C0 60.97 0 30.94 0 0 Z " fill="#FFFFFF" transform="translate(1532,806)"/>
<path d="M0 0 C2.64 0 5.28 0 8 0 C9 1 9 1 9.09765625 3.06640625 C9.08605469 3.89011719 9.07445312 4.71382812 9.0625 5.5625 C9.05347656 6.38878906 9.04445313 7.21507812 9.03515625 8.06640625 C9.02355469 8.70449219 9.01195312 9.34257813 9 10 C9.66 10 10.32 10 11 10 C11.226875 9.4225 11.45375 8.845 11.6875 8.25 C14.5491209 3.34436418 18.69352701 1.45069046 24 0 C27.4296875 -0.1953125 27.4296875 -0.1953125 30.875 -0.125 C32.02742187 -0.10695313 33.17984375 -0.08890625 34.3671875 -0.0703125 C35.23601562 -0.04710937 36.10484375 -0.02390625 37 0 C37 3.3 37 6.6 37 10 C36.154375 10.01417969 35.30875 10.02835938 34.4375 10.04296875 C28.11572704 10.30877057 23.09217161 10.7752779 17.68359375 14.16015625 C12.28102985 20.06411819 11.40119207 26.45309597 11.390625 34.1875 C11.37408875 35.13061035 11.35755249 36.0737207 11.34051514 37.04541016 C11.29228921 40.03034136 11.27072077 43.01476406 11.25 46 C11.22181907 48.03518148 11.19188869 50.07033954 11.16015625 52.10546875 C11.08653709 57.07027059 11.03680751 62.03479433 11 67 C7.37 67 3.74 67 0 67 C0 44.89 0 22.78 0 0 Z " fill="#F9F4F4" transform="translate(990,830)"/>
<path d="M0 0 C2.64 0 5.28 0 8 0 C8.66 2.97 9.32 5.94 10 9 C10.51949219 8.51789062 11.03898438 8.03578125 11.57421875 7.5390625 C12.62029297 6.59160156 12.62029297 6.59160156 13.6875 5.625 C14.37199219 4.99851562 15.05648437 4.37203125 15.76171875 3.7265625 C20.4917801 0.07789388 24.4165016 -0.23520558 30.3125 -0.125 C31.56675781 -0.10695313 32.82101562 -0.08890625 34.11328125 -0.0703125 C35.54220703 -0.03550781 35.54220703 -0.03550781 37 0 C37 3.3 37 6.6 37 10 C36.14277344 10.02578125 35.28554688 10.0515625 34.40234375 10.078125 C27.51034701 10.42000533 22.4953162 10.67390001 17 15 C13.27414631 19.7063415 11.91906874 23.40988269 11.79467773 29.30957031 C11.77473251 30.15013977 11.75478729 30.99070923 11.73423767 31.85675049 C11.70916893 33.20383087 11.70916893 33.20383087 11.68359375 34.578125 C11.66281265 35.5046991 11.64203156 36.43127319 11.62062073 37.38592529 C11.55533039 40.34054272 11.49633569 43.29524768 11.4375 46.25 C11.39429527 48.25521732 11.35068035 50.26042585 11.30664062 52.265625 C11.19967001 57.17699404 11.09834482 62.08845097 11 67 C7.37 67 3.74 67 0 67 C0 44.89 0 22.78 0 0 Z " fill="#FAF6F6" transform="translate(954,694)"/>
<path d="M0 0 C6.93 0 13.86 0 21 0 C21 15.51 21 31.02 21 47 C6.9 47 6.9 47 3 44 C-0.21918742 38.95453817 -0.40475764 34.87903059 -0.29296875 29.1015625 C-0.28872391 28.26660248 -0.28447906 27.43164246 -0.28010559 26.57138062 C-0.26340333 23.92224965 -0.22576775 21.2738984 -0.1875 18.625 C-0.1724422 16.82162562 -0.15875571 15.01823924 -0.14648438 13.21484375 C-0.11608774 8.8093587 -0.05735281 4.40554513 0 0 Z " fill="#800000" transform="translate(1218,840)"/>
<path d="M0 0 C3.63 0 7.26 0 11 0 C11 22.11 11 44.22 11 67 C7.37 67 3.74 67 0 67 C0 44.89 0 22.78 0 0 Z " fill="#FFFFFF" transform="translate(1253,830)"/>
<path d="M0 0 C3.63 0 7.26 0 11 0 C11 22.11 11 44.22 11 67 C7.37 67 3.74 67 0 67 C0 44.89 0 22.78 0 0 Z " fill="#F9F4F4" transform="translate(1002,694)"/>
<path d="M0 0 C3.80734974 3.31963139 6.63393534 7.08216721 8 12 C8 12.99 8 13.98 8 15 C-7.18 15 -22.36 15 -38 15 C-36.54644436 7.73222179 -34.55041382 3.77470816 -28.5 -0.375 C-19.59332833 -6.07893015 -8.99405436 -5.30339067 0 0 Z " fill="#810303" transform="translate(956,843)"/>
<path d="M0 0 C4.29 0 8.58 0 13 0 C13 4.29 13 8.58 13 13 C8.71 13 4.42 13 0 13 C0 8.71 0 4.42 0 0 Z " fill="#FFFFFF" transform="translate(1252,806)"/>
<path d="M0 0 C3.63 0 7.26 0 11 0 C11 3.96 11 7.92 11 12 C7.37 12 3.74 12 0 12 C0 8.04 0 4.08 0 0 Z " fill="#FCF8F8" transform="translate(1002,671)"/>
</svg>