<?xml version="1.0" encoding="UTF-8"?>
<!DOCTYPE svg PUBLIC "-//W3C//DTD SVG 1.1//EN" "http://www.w3.org/Graphics/SVG/1.1/DTD/svg11.dtd">
<svg xmlns="http://www.w3.org/2000/svg" version="1.1" width="390px" height="250px" style="shape-rendering:geometricPrecision; text-rendering:geometricPrecision; image-rendering:optimizeQuality; fill-rule:evenodd; clip-rule:evenodd" xmlns:xlink="http://www.w3.org/1999/xlink">
<g><path style="opacity:1" fill="#be1d08" d="M 195.5,69.5 C 194.472,70.0736 193.472,70.407 192.5,70.5C 196.103,75.4575 195.27,75.7908 190,71.5C 184.521,63.8685 183.187,55.5352 186,46.5C 189.418,40.6631 193.084,34.9964 197,29.5C 198.889,32.1116 200.389,34.9449 201.5,38C 196.896,43.2816 193.063,49.1149 190,55.5C 189.333,58.5 189.333,61.5 190,64.5C 190.18,61.0445 190.847,57.7111 192,54.5C 195.697,50.305 199.197,45.9717 202.5,41.5C 203.66,43.1459 204.327,44.9792 204.5,47C 203.461,49.6259 203.461,52.2925 204.5,55C 204.458,56.9674 203.958,58.8008 203,60.5C 199.854,63.1293 197.354,66.1293 195.5,69.5 Z M 195.5,59.5 C 194.373,62.8094 194.373,66.1427 195.5,69.5C 192.954,66.1322 192.954,62.7988 195.5,59.5 Z"/></g>
<g><path style="opacity:1" fill="#bd1907" d="M 247.5,78.5 C 254.198,78.4077 260.698,79.4077 267,81.5C 268.329,80.5061 269.662,79.5061 271,78.5C 271.772,78.6448 272.439,78.9781 273,79.5C 273.667,86.1667 273.667,92.8333 273,99.5C 272.586,99.9574 272.086,100.291 271.5,100.5C 269.066,96.7471 266.899,92.7471 265,88.5C 260.078,83.7981 254.245,82.2981 247.5,84C 239.829,88.737 239.495,94.0703 246.5,100C 252.743,103.289 259.076,106.289 265.5,109C 279.466,116.867 281.799,127.2 272.5,140C 264.6,145.212 255.933,146.879 246.5,145C 241.866,143.303 237.199,143.136 232.5,144.5C 232.5,136.833 232.5,129.167 232.5,121.5C 233.5,121.5 234.5,121.5 235.5,121.5C 237.575,134.75 245.242,141.25 258.5,141C 267.947,136.551 268.947,130.551 261.5,123C 253.5,118.667 245.5,114.333 237.5,110C 229.207,100.101 229.873,90.7673 239.5,82C 242.158,80.522 244.825,79.3554 247.5,78.5 Z"/></g>
<g><path style="opacity:0.09" fill="#d9751b" d="M 141.5,81.5 C 149.65,80.5073 157.983,80.1739 166.5,80.5C 166.737,81.791 166.404,82.791 165.5,83.5C 157.903,81.5332 149.903,80.8665 141.5,81.5 Z"/></g>
<g><path style="opacity:1" fill="#bc1307" d="M 141.5,81.5 C 149.903,80.8665 157.903,81.5332 165.5,83.5C 161.243,82.5971 158.743,84.2637 158,88.5C 157.333,104.167 157.333,119.833 158,135.5C 158.309,136.766 158.809,137.933 159.5,139C 161.804,139.895 164.138,140.729 166.5,141.5C 155.833,142.833 145.167,142.833 134.5,141.5C 136.862,140.729 139.196,139.895 141.5,139C 142.191,137.933 142.691,136.766 143,135.5C 143.667,119.833 143.667,104.167 143,88.5C 135.724,105.386 128.724,122.386 122,139.5C 121.632,140.91 120.799,141.91 119.5,142.5C 111.716,125.324 104.216,107.991 97,90.5C 96.3333,106.167 96.3333,121.833 97,137.5C 99.3216,139.112 101.822,140.445 104.5,141.5C 97.5,142.833 90.5,142.833 83.5,141.5C 87.8718,140.914 90.7052,138.58 92,134.5C 92.6667,119.167 92.6667,103.833 92,88.5C 90.9374,84.0453 88.104,82.3786 83.5,83.5C 83.5,82.5 83.5,81.5 83.5,80.5C 91.84,80.3336 100.173,80.5003 108.5,81C 114.129,93.7602 119.629,106.593 125,119.5C 130.613,106.808 136.113,94.1411 141.5,81.5 Z"/></g>
<g><path style="opacity:1" fill="#bb0d07" d="M 177.5,80.5 C 189.186,80.1678 200.852,80.5011 212.5,81.5C 209.841,82.8119 207.341,84.4785 205,86.5C 204.333,101.833 204.333,117.167 205,132.5C 206.085,131.707 207.252,131.04 208.5,130.5C 209.53,138.713 210.53,146.88 211.5,155C 210.751,156.734 210.251,158.567 210,160.5C 204.991,167.198 199.991,173.864 195,180.5C 193.739,180.241 192.739,179.574 192,178.5C 187.914,171.993 183.58,165.66 179,159.5C 178.578,149.748 179.244,140.081 181,130.5C 182,131.167 183,131.833 184,132.5C 184.667,117.167 184.667,101.833 184,86.5C 182.535,84.085 180.368,83.085 177.5,83.5C 177.5,82.5 177.5,81.5 177.5,80.5 Z M 192.5,145.5 C 200.503,145.839 203.336,149.839 201,157.5C 196.291,161.769 191.958,161.436 188,156.5C 186.391,151.391 187.891,147.725 192.5,145.5 Z"/></g>
<g><path style="opacity:0.996" fill="#ecac0d" d="M 192.5,208.5 C 191.833,208.5 191.5,208.167 191.5,207.5C 191.5,206.833 191.167,206.5 190.5,206.5C 184.468,205.269 178.801,203.269 173.5,200.5C 173.5,199.833 173.167,199.5 172.5,199.5C 171.833,199.167 171.167,198.833 170.5,198.5C 169.833,198.5 169.5,198.833 169.5,199.5C 168.833,199.5 168.5,199.167 168.5,198.5C 168.5,197.833 168.167,197.5 167.5,197.5C 166.604,198.506 165.938,198.506 165.5,197.5C 165.5,196.833 165.167,196.5 164.5,196.5C 163.604,197.506 162.938,197.506 162.5,196.5C 162.167,195.167 161.833,195.167 161.5,196.5C 160.833,196.5 160.5,196.167 160.5,195.5C 160.158,194.662 159.492,194.328 158.5,194.5C 157.5,193.167 156.5,193.167 155.5,194.5C 154.833,194.5 154.5,194.167 154.5,193.5C 154.5,192.833 154.167,192.5 153.5,192.5C 153.5,191.833 153.167,191.5 152.5,191.5C 151.833,191.5 151.167,191.5 150.5,191.5C 149.791,190.596 148.791,190.263 147.5,190.5C 146.791,189.596 145.791,189.263 144.5,189.5C 108.318,174.598 71.9848,159.765 35.5,145C 35.1667,144.667 34.8333,144.333 34.5,144C 42.2146,143.238 49.8812,143.571 57.5,145C 70.8087,147.992 83.8087,151.992 96.5,157C 130.022,171.601 162.355,188.267 193.5,207C 192.944,207.383 192.611,207.883 192.5,208.5 Z"/></g>
<g><path style="opacity:0.996" fill="#ecad0d" d="M 250.5,187.5 C 248.447,187.402 246.78,188.069 245.5,189.5C 244.209,189.263 243.209,189.596 242.5,190.5C 241.209,190.263 240.209,190.596 239.5,191.5C 239.167,191.5 238.833,191.5 238.5,191.5C 238.167,191.5 237.833,191.5 237.5,191.5C 236.833,191.5 236.5,191.833 236.5,192.5C 235.508,192.328 234.842,192.662 234.5,193.5C 234.167,193.5 233.833,193.5 233.5,193.5C 232.833,193.5 232.5,193.833 232.5,194.5C 221.946,198.432 211.112,202.765 200,207.5C 198.692,206.849 197.859,207.515 197.5,209.5C 196.833,209.5 196.5,209.833 196.5,210.5C 195.986,209.375 195.653,208.209 195.5,207C 226.594,189.119 258.594,172.785 291.5,158C 306.659,151.627 322.325,146.96 338.5,144C 344.5,143.333 350.5,143.333 356.5,144C 320.959,158.446 285.625,172.946 250.5,187.5 Z"/></g>
<g><path style="opacity:1" fill="#d67a0c" d="M 144.5,189.5 C 145.209,190.404 146.209,190.737 147.5,190.5C 148.209,191.404 149.209,191.737 150.5,191.5C 151.167,192.833 151.833,192.833 152.5,191.5C 153.167,191.5 153.5,191.833 153.5,192.5C 154.167,192.5 154.5,192.833 154.5,193.5C 154.5,194.167 154.833,194.5 155.5,194.5C 156.5,194.5 157.5,194.5 158.5,194.5C 158.842,195.338 159.508,195.672 160.5,195.5C 160.5,196.167 160.833,196.5 161.5,196.5C 161.833,196.5 162.167,196.5 162.5,196.5C 162.938,197.506 163.604,197.506 164.5,196.5C 165.167,196.5 165.5,196.833 165.5,197.5C 165.938,198.506 166.604,198.506 167.5,197.5C 168.167,197.5 168.5,197.833 168.5,198.5C 168.5,199.167 168.833,199.5 169.5,199.5C 170.167,199.5 170.5,199.167 170.5,198.5C 171.167,198.833 171.833,199.167 172.5,199.5C 173.167,199.5 173.5,199.833 173.5,200.5C 178.801,203.269 184.468,205.269 190.5,206.5C 191.167,206.5 191.5,206.833 191.5,207.5C 191.5,208.167 191.833,208.5 192.5,208.5C 194.424,208.711 194.757,209.377 193.5,210.5C 178.8,206.076 163.8,202.409 148.5,199.5C 147.833,198.167 147.167,198.167 146.5,199.5C 145.833,199.167 145.167,198.833 144.5,198.5C 143.833,197.167 143.167,197.167 142.5,198.5C 141.391,198.443 140.391,198.11 139.5,197.5C 138.5,196.167 137.5,196.167 136.5,197.5C 135.508,197.672 134.842,197.338 134.5,196.5C 99.9544,187.664 64.621,179.164 28.5,171C 26.5,170.333 24.5,169.667 22.5,169C 22.8333,168.667 23.1667,168.333 23.5,168C 37.8806,165.923 52.214,166.256 66.5,169C 93.0286,173.9 119.029,180.733 144.5,189.5 Z"/></g>
<g><path style="opacity:1" fill="#d67a0c" d="M 255.5,196.5 C 255.158,197.338 254.492,197.672 253.5,197.5C 252.5,196.167 251.5,196.167 250.5,197.5C 249.167,197.833 247.833,198.167 246.5,198.5C 246.167,197.167 245.833,197.167 245.5,198.5C 229.429,201.851 213.429,205.518 197.5,209.5C 197.859,207.515 198.692,206.849 200,207.5C 211.112,202.765 221.946,198.432 232.5,194.5C 233.167,194.5 233.5,194.167 233.5,193.5C 233.833,193.5 234.167,193.5 234.5,193.5C 235.492,193.672 236.158,193.338 236.5,192.5C 236.5,191.833 236.833,191.5 237.5,191.5C 237.833,192.833 238.167,192.833 238.5,191.5C 238.833,191.5 239.167,191.5 239.5,191.5C 240.791,191.737 241.791,191.404 242.5,190.5C 243.791,190.737 244.791,190.404 245.5,189.5C 247.553,189.598 249.22,188.931 250.5,187.5C 276.364,179.16 302.697,172.66 329.5,168C 342.288,165.673 354.954,166.006 367.5,169C 329.434,178.083 292.101,187.249 255.5,196.5 Z"/></g>
<g><path style="opacity:1" fill="#bc1407" d="M 134.5,196.5 C 134.842,197.338 135.508,197.672 136.5,197.5C 137.5,197.5 138.5,197.5 139.5,197.5C 140.391,198.11 141.391,198.443 142.5,198.5C 143.167,198.5 143.833,198.5 144.5,198.5C 145.167,198.833 145.833,199.167 146.5,199.5C 147.167,199.5 147.833,199.5 148.5,199.5C 163.8,202.409 178.8,206.076 193.5,210.5C 136.515,205.959 79.5155,201.459 22.5,197C 28.8852,194.453 35.5519,192.787 42.5,192C 73.3667,189.371 104.033,190.871 134.5,196.5 Z"/></g>
<g><path style="opacity:1" fill="#bc1407" d="M 196.5,210.5 C 196.5,209.833 196.833,209.5 197.5,209.5C 213.429,205.518 229.429,201.851 245.5,198.5C 245.833,198.5 246.167,198.5 246.5,198.5C 247.833,198.167 249.167,197.833 250.5,197.5C 251.5,197.5 252.5,197.5 253.5,197.5C 254.492,197.672 255.158,197.338 255.5,196.5C 285.966,190.871 316.633,189.371 347.5,192C 354.384,193.054 361.051,194.721 367.5,197C 310.48,201.403 253.48,205.903 196.5,210.5 Z"/></g>
</svg>
