<svg height="104" viewBox="0 0 147 104" width="147" xmlns="http://www.w3.org/2000/svg"><g fill="#fff"><path d="m86.0278379.13269392h46.9378731l.001028 7.06580221c-5.515965-.69174627-13.062314-1.29620436-23.179286-1.29620436-10.4341218 0-18.1644911.57771662-23.7591011 1.30326815zm46.9389011 9.96195368v14.6164827c-5.681994-5.1999541-13.317269-9.5502359-22.984471-9.5921141-10.4505714-.0449055-18.284259 4.0223204-23.9544301 9.0209567v14.456034l5.9698456-1.7487911s5.9677896-16.8274472 21.4403505-16.5443912c8.051119.1473303 14.620828 4.1752009 19.528705 8.7838154v17.1609586h-46.9188543l-.0200468-7.6515917-13.1435297 3.7897201s4.1250225-10.4140358 13.1435297-18.3148782v-13.983265c5.5653107-.68316884 13.2525022-1.22455742 23.6311101-1.22455742 10.172486 0 17.761499.57065283 23.307791 1.23162122zm-46.9389011-2.90119703-.0005141 2.90775623c-9.7473896 1.1685517-13.1430156 2.7856537-13.1430156 2.7856537v-2.7442801s3.3647847-1.71599496 13.1435297-2.94912983zm46.9389011-.00050455c9.778745 1.23263031 13.14353 2.94862528 13.14353 2.94862528v2.7442801s-3.395626-1.617102-13.143016-2.7856537zm0 17.51767978c8.850422 7.7832808 13.14353 17.4702515 13.14353 17.4702515l-2.39534.6241357s-3.747731-7.4043593-10.747676-13.7193822z"/><path d="m65.9620709 102.551712c.3254827.454032.7632362.789643 1.3148057 1.007351s1.1340392.326821 1.7484392.326821c.4614437 0 .8950772-.06826 1.3019305-.204263s.7586012-.331475 1.0567886-.585381.5356043-.567282.7117357-.939092c.1766465-.372327.2652272-.789644.2652272-1.252467 0-.580727-.118451-1.0368275-.3532929-1.368302-.2348419-.3309575-.5258192-.593655-.873962-.7891267-.3481429-.1954717-.7271859-.3475053-1.1391893-.4561007-.4114883-.1091126-.7905314-.2316702-1.1386742-.3676731-.3481428-.1360028-.6391202-.3128582-.8739621-.5310832-.2348419-.217708-.3527778-.5305662-.3527778-.9390918 0-.1447939.0298702-.3040671.0880657-.4762684.0587104-.1722013.1606813-.3335431.3053974-.4835082.1442012-.149448.3362978-.2720056.5757747-.3671559.239992-.0956674.5402394-.1432425.9012573-.1432425.3795581 0 .7194608.0775681 1.0176483.2316702.2981874.154102.5278792.3583648.6911356.6122713l1.0567885-.9664992c-.3615329-.444207-.7812613-.739483-1.2602152-.8847941-.4794689-.1447938-.9805679-.2177079-1.5053572-.2177079-.5783497 0-1.0732687.0884277-1.484242.2652831-.4114883.1773725-.7477861.3971489-1.0099232.6603635-.2616221.2632146-.4537187.5538366-.5762897.8713489-.121541.3175123-.1823114.6169254-.1823114.8982392 0 .6262335.1169059 1.1231868.3517478 1.4908599.2348419.3671559.5268493.6598464.8749921.8775543.3471128.2182251.7271859.3883579 1.1386742.5109156.4109734.1220405.7910464.2492523 1.1381592.3811182.3481429.1313487.6401502.2947585.8749921.4897135.2348419.195472.3522629.478854.3522629.850664 0 .263732-.0587105.494885-.1766464.694494-.116906.199608-.2683172.367673-.4532037.503676-.1859165.136002-.3914032.238392-.61749.306135-.2255718.068777-.4475386.10239-.6643554.10239-.3888282 0-.7652962-.083774-1.1319792-.251838-.3661679-.168064-.6664154-.42921-.9012573-.782921zm18.1302069-7.2960608c-.3888281-.5083299-.8878671-.884794-1.4976321-1.1299094-.6107949-.2451153-1.23189-.367673-1.8638001-.367673-.742121 0-1.4193515.1272118-2.0337515.3811182-.61543.2544235-1.1412492.6107199-1.5800328 1.0688891-.4377535.4581692-.7792013 1.0026977-1.0227983 1.6330682-.2446269.6308876-.3661679 1.3186585-.3661679 2.0622785 0 .6081344.1133009 1.2095462.3383577 1.8037182.2266019.594689.5536295 1.127841.983143 1.599455.4289985.472132.9486377.85325 1.5594326 1.143355.609765.290622 1.2942055.435933 2.0538367.435933.5505394 0 1.0372184-.070329 1.4574618-.210986.4197284-.140657.7792013-.304067 1.0773887-.49023.2987024-.185647.5376644-.37181.7184308-.557457.1807665-.18668.3074575-.329406.3800731-.42921l-1.0985039-.830497c-.2894323.408526-.6416952.726038-1.0578186.953054-.4156083.226499-.8986823.340266-1.4497367.340266-.5608396 0-1.0629686-.099804-1.5048422-.29993-.4434186-.199092-.8183416-.471614-1.1257991-.816534-.3069425-.34492-.5422994-.744137-.7050407-1.197652-.1622264-.4540327-.244112-.9349552-.244112-1.4432852 0-.5445284.0860057-1.0549268.2575021-1.5311953.1720114-.4762684.4135483-.8915166.7261558-1.2457445.3110626-.3537107.6865006-.6329561 1.1247692-.8367018.4387835-.2042628.9290675-.3066527 1.4713669-.3066527.4423886 0 .871902.0956674 1.2875104.2859679.4150934.1908176.7586012.4628233 1.0305234.8165341zm3.7739506 8.3851168h1.3019306v-4.4105247h4.9754553v4.4105247h1.3014155v-9.6375838h-1.3014155v4.0019995h-4.9754553v-4.0019995h-1.3019306zm18.5880456-.143242c.613885-.258561 1.140734-.61434 1.578488-1.068372.438783-.453515.782291-.988735 1.030523-1.606178.248747-.616925.373378-1.2840114.373378-2.0012583 0-.7167297-.124631-1.3838158-.373378-2.0007412-.248232-.6169253-.59174-1.1526627-1.030523-1.6061778-.437754-.4540323-.964603-.8098115-1.578488-1.0688891-.614915-.2585605-1.288025-.3878408-2.020361-.3878408s-1.404932.1292803-2.020362.3878408c-.613885.2590776-1.140734.6148568-1.578487 1.0688891-.439299.4535151-.782292.9892525-1.0305238 1.6061778-.2492621.6169254-.3733781 1.2840115-.3733781 2.0007412 0 .7172469.124116 1.3843333.3733781 2.0012583.2482318.617443.5912248 1.152663 1.0305238 1.606178.437753.454032.964602.809811 1.578487 1.068372.61543.259078 1.288026.388358 2.020362.388358s1.405446-.12928 2.020361-.388358zm-3.511298-1.143355c-.443419-.204262-.822462-.478337-1.138675-.823256-.317242-.34492-.560324-.75086-.732336-1.218337-.171496-.4674778-.257502-.9644311-.257502-1.4908603 0-.5253949.086006-1.0228653.257502-1.4903427.172012-.4674774.415094-.8734174.732336-1.2183371.316213-.3449197.695256-.619511 1.138675-.8232567.442903-.2042628.939882-.3066527 1.490937-.3066527.551054 0 1.048033.1023899 1.491452.3066527.442903.2037457.821946.478337 1.138674.8232567.316213.3449197.55981.7508597.731821 1.2183371.171496.4674774.257502.9649478.257502 1.4903427 0 .5264292-.086006 1.0233825-.257502 1.4908603-.172011.467477-.415608.873417-.731821 1.218337-.316728.344919-.695771.618994-1.138674.823256-.443419.204263-.940398.306653-1.491452.306653-.551055 0-1.048034-.10239-1.490937-.306653zm16.936942 1.143355c.614915-.258561 1.140734-.61434 1.580033-1.068372.437753-.453515.780746-.988735 1.030008-1.606178.248232-.616925.372348-1.2840114.372348-2.0012583 0-.7167297-.124116-1.3838158-.372348-2.0007412-.249262-.6169253-.592255-1.1526627-1.030008-1.6061778-.439299-.4540323-.965118-.8098115-1.580033-1.0688891-.6144-.2585605-1.288026-.3878408-2.019847-.3878408-.73182 0-1.404931.1292803-2.019331.3878408-.61543.2590776-1.141249.6148568-1.580033 1.0688891-.437753.4535151-.781261.9892525-1.030523 1.6061778-.247717.6169254-.371833 1.2840115-.371833 2.0007412 0 .7172469.124116 1.3843333.371833 2.0012583.249262.617443.59277 1.152663 1.030523 1.606178.438784.454032.964603.809811 1.580033 1.068372.6144.259078 1.287511.388358 2.019331.388358.731821 0 1.405447-.12928 2.019847-.388358zm-3.510784-1.143355c-.442903-.204262-.822976-.478337-1.138674-.823256-.316212-.34492-.560839-.75086-.732336-1.218337-.172011-.4674778-.258017-.9644311-.258017-1.4908603 0-.5253949.086006-1.0228653.258017-1.4903427.171497-.4674774.416124-.8734174.732336-1.2183371.315698-.3449197.695771-.619511 1.138674-.8232567.442389-.2042628.939368-.3066527 1.490937-.3066527.55157 0 1.048549.1023899 1.491453.3066527.442388.2037457.822461.478337 1.139189.8232567.315697.3449197.559809.7508597.731821 1.2183371.171496.4674774.257502.9649478.257502 1.4903427 0 .5264292-.086006 1.0233825-.257502 1.4908603-.172012.467477-.416124.873417-.731821 1.218337-.316728.344919-.696801.618994-1.139189.823256-.442904.204263-.939883.306653-1.491453.306653-.551569 0-1.048548-.10239-1.490937-.306653zm10.47364 1.286597h5.706246v-1.225059h-4.405345v-8.4125248h-1.300901z"/><path d="m.239887 85.0731076h1.29601157v-9.6375842h-1.29601157zm5.85206174 0h1.2954985v-7.922811h.02719264l5.31847032 7.922811h1.6469505v-9.6375842h-1.2954985v7.9222938h-.0271926l-5.26459808-7.9222938h-1.70082278zm14.86103526 0h1.2960116v-8.4125246h3.0773861v-1.2250596h-7.4512969v1.2250596h3.0778992zm7.8617519 0h6.4118197v-1.2255768h-5.1158082v-3.089798h4.5355275v-1.2250597h-4.5355275v-2.8720901h4.8731267v-1.2250596h-6.1691382zm10.2767663 0h1.2960116v-4.2471148h1.4442884l2.4298934 4.2471148h1.6197579l-2.7131073-4.3965628c.3596612-.0367156.6859729-.1339343.978422-.2926905.2924492-.1587561.5402614-.3542279.7424104-.5858981.2026622-.2311531.3576089-.4897136.4658664-.7761986.1077445-.2854508.1621298-.5827954.1621298-.8909995 0-.2994131-.0451501-.6102028-.1349371-.9323692-.0903001-.3221664-.2498645-.6133055-.4792062-.871866-.2298548-.2585605-.5423136-.4716144-.9384027-.6391616-.396089-.1675472-.8999225-.2518379-1.5120135-.2518379h-3.3611131zm1.2960116-8.4942297h1.7008227c.2519168 0 .5012682.0206849.7490804.0615374.2472991.0408526.4679186.115318.6613455.2239134.1934269.1091126.3488868.2658002.4658664.470063.1169797.2037457.1754695.4695459.1754695.7963664s-.0584898.5915864-.1754695.7963663c-.1169796.2037457-.2724395.3609505-.4658664.4695459-.1934269.1091125-.4140464.1830608-.6613455.2244305-.2478122.0408526-.4971636.0615374-.7490804.0615374h-1.7008227zm9.1372407 8.4942297h1.2960115v-7.922811h.0271927l5.3184703 7.922811h1.6469505v-9.6375842h-1.2960116v7.9222938h-.0271926l-5.2645981-7.9222938h-1.7008227zm11.7169502 0h1.5120135l.9450725-2.3823765h4.5493803l.9584124 2.3823765h1.5115004l-4.0901838-9.6375842h-1.1744143zm2.9162825-3.525731 1.8085672-4.4244874h.0271927l1.7818876 4.4244874zm10.9730006 3.525731h1.2960115v-8.4125246h3.0778993v-1.2250596h-7.45181v1.2250596h3.0778992zm7.8617519 0h1.2960115v-9.6375842h-1.2960115zm12.2992831-.1427254c.6115779-.2590776 1.1359342-.6148568 1.5725556-1.0688891.4366215-.4535151.7783253-.9887354 1.0261375-1.606695.2472991-.6164082.3709486-1.2834943.3709486-2.000224 0-.717764-.1236495-1.384333-.3709486-2.0012583-.2478122-.6169254-.589516-1.1521457-1.0261375-1.6061779-.4366214-.4535151-.9609777-.8098115-1.5725556-1.0688891-.6120909-.2585605-1.2826717-.3878408-2.0112293-.3878408-.7290707 0-1.3996515.1292803-2.0117424.3878408-.612091.2590776-1.1359342.615374-1.5725556 1.0688891-.4366215.4540322-.7783253.9892525-1.0256244 1.6061779-.2478122.6169253-.3714617 1.2834943-.3714617 2.0012583 0 .7167297.1236495 1.3838158.3714617 2.000224.2472991.6179596.5890029 1.1531799 1.0256244 1.606695.4366214.4540323.9604646.8098115 1.5725556 1.0688891.6120909.2585605 1.2826717.3878408 2.0117424.3878408.7285576 0 1.3991384-.1292803 2.0112293-.3878408zm-3.4965632-1.1443888c-.4407261-.2032285-.8188577-.4783369-1.1338819-.8232566s-.5577057-.7508597-.7285576-1.21782c-.1713649-.4674774-.2565343-.9644307-.2565343-1.4903427 0-.5264292.0851694-1.0233825.2565343-1.491377.1708519-.4669603.4135334-.8729003.7285576-1.21782s.6931558-.619511 1.1338819-.8232567c.4412391-.2042627.9358373-.3071698 1.4853339-.3071698.5484704 0 1.0435817.1029071 1.4848208.3071698.4407261.2037457.8188577.478337 1.1338819.8232567s.5577057.7508597.7290706 1.21782c.1708519.4679945.2565344.9649478.2565344 1.491377 0 .525912-.0856825 1.0228653-.2565344 1.4903427-.1713649.4669603-.4140464.8729003-.7290706 1.21782s-.6931558.6200281-1.1338819.8232566c-.4412391.20478-.9363504.3071699-1.4848208.3071699-.5494966 0-1.0440948-.1023899-1.4853339-.3071699zm10.4563404 1.2871142h1.296011v-7.922811h.027193l5.31847 7.922811h1.646951v-9.6375842h-1.296012v7.9222938h-.026679l-5.265111-7.9222938h-1.700823zm11.717463 0h1.511501l.945072-2.3823765h4.54938l.958413 2.3823765h1.512013l-4.090697-9.6375842h-1.174414zm2.91577-3.525731 1.808567-4.4244874h.027193l1.781887 4.4244874zm9.981238 3.525731h5.682749v-1.2255768h-4.38725v-8.4120074h-1.295499z"/><path d="m.239887 65.6614623h3.28517897c.46843173 0 .90607934-.0589518 1.31140363-.1768554.40583735-.1179036.76139397-.290622 1.06820906-.517121.30630202-.2270161.54744431-.5062615.72291381-.8372189.17598257-.3319917.26371732-.7146613.26371732-1.1511114 0-.3257862-.05387221-.6298534-.16212971-.9111672-.1082575-.2813139-.25448208-.5290148-.43918682-.7420687-.18521781-.2130538-.40378508-.3857722-.65570182-.517121-.2524298-.1318658-.52281701-.2063313-.81116163-.2249476v-.0268903c.48638914-.1639274.88299125-.4204194 1.18929328-.768959.30630202-.3495738.45970956-.8010204.45970956-1.354857 0-.4080085-.07439496-.7643049-.22267182-1.068372-.14878993-.3040672-.35145207-.5533195-.60849949-.7487912-.25704743-.1949547-.56334945-.3423341-.91941914-.4421385-.35606968-.0998043-.74138428-.1499651-1.1559438-.1499651h-3.3257114zm1.29806384-8.4942297h2.04098734c.52281702 0 .90607935.141174 1.14927392.4219707.24370764.2813138.36530492.6127884.36530492.9939066 0 .2632146-.04771539.4855766-.14212003.6670861-.09440465.1815095-.22318489.3314746-.38531461.448861-.16212971.1184207-.35145206.2016772-.56796706.251838-.21600193.0501607-.44585671.0749825-.68956435.0749825h-1.77060013zm0 4.0014823h1.91939006c.63107451 0 1.13131651.1437597 1.50072598.4297276.36940947.2849337.55462728.713627.55462728 1.2860799 0 .3449198-.07234269.6215795-.216515.8299793-.14417231.209434-.32015487.3749127-.52743463.4974704-.20727976.1220405-.43046465.2037457-.6690416.2445982-.23909003.0408526-.4576573.0615374-.65570182.0615374h-1.90605027zm10.36039656 4.4927474h1.2980638v-4.2471149h1.4463407l2.4334849 4.2471149h1.6223233l-2.7172119-4.3965629c.3601742-.0361984.686999-.1339343.9799612-.2926904.2929622-.1587562.5407744-.3542279.7434366-.585381.2031752-.2316702.358635-.4902307.4663794-.7761987.1082575-.2854508.1626428-.5827953.1626428-.8915166 0-.299413-.04515-.6102028-.1354501-.9323692s-.2498645-.6127884-.4797193-.8713489-.5433397-.4716143-.9399418-.6396787c-.3966022-.1675472-.9009487-.2518379-1.5140658-.2518379h-3.3662438zm1.2980638-8.4942297h1.7033881c.2519168 0 .5022943.0206848.7501065.0615374.2478122.0408525.4684317.115318.6623717.2244305s.3493998.2652831.4663795.4695459c.1169796.2042628.1759825.4695458.1759825.7963663s-.0590029.5921036-.1759825.7963664c-.1169797.2042628-.2724395.3604333-.4663795.4690287-.19394.1091126-.4145595.1846122-.6623717.2254648-.2478122.0403354-.4981897.0610203-.7501065.0610203h-1.7033881zm9.4219938 8.4942297h1.5145789l.9460987-2.3823765h4.5560502l.9599515 2.3823765h1.5140658l-4.0963406-9.6375843h-1.1759535zm2.9203872-3.5257311 1.8116456-4.4239702h.0271926l1.784453 4.4239702zm10.9796704 3.5257311h1.2980638v-7.9222939h.0271927l5.3266794 7.9222939h1.6490028v-9.6375843h-1.2975508v7.9222939h-.0271926l-5.2728072-7.9222939h-1.7033881zm13.7487023 0h3.1230492c.8563117 0 1.6110358-.13652 2.2646853-.4085256.6531365-.2720057 1.2005808-.6334733 1.642333-1.0818172.4417522-.4493781.7752468-.9618451 1.000484-1.538435.2252371-.5765899.3381123-1.1728304.3381123-1.7897558 0-.2999302-.0318103-.6262335-.0949177-.9804614-.0631075-.3537108-.1662343-.7079387-.3109197-1.0616495-.1441723-.3537107-.3401645-.6986304-.5879767-1.0347591-.2478122-.3356115-.5587319-.6329561-.9322459-.8915166-.3745401-.2585605-.8162923-.4648918-1.3252565-.6189939-.5094772-.1546192-1.1020716-.2316702-1.7777831-.2316702h-3.3395642zm1.2980638-8.4125246h1.9465827c.7752469 0 1.4058083.1292802 1.8932236.3878407.4863891.2590777.8670861.5745215 1.1420909.9463315.2744918.3723271.4617619.764822.5607841 1.1774845.0990223.4131797.14879.7736131.14879 1.0823343 0 .5988261-.1082575 1.1226697-.3242595 1.5720479-.216515.4493781-.5094772.8227395-.8788867 1.1231868-.3699225.2994131-.799361.5238436-1.2908808.6738087-.4910068.1489308-1.0122846.2244305-1.5612681.2244305h-1.6361762zm12.0232522 8.4125246h6.4220811v-1.2250597h-5.1240172v-3.089798h4.5427104v-1.2255768h-4.5427104v-2.8720901h4.8803096v-1.2250597h-6.1783735zm11.2762242 0h1.2980639v-7.9222939h.0266795l5.3266794 7.9222939h1.6495159v-9.6375843h-1.2980638v7.9222939h-.0271927l-5.271781-7.9222939h-1.7039012zm13.8564467 0h3.285179c.4684317 0 .9060793-.0589518 1.3114036-.1768554.4058374-.1179036.761394-.290622 1.0682091-.517121.306302-.2270161.5474443-.5062615.7234269-.8372189.1754695-.3319917.2632042-.7146613.2632042-1.1511114 0-.3257862-.0538722-.6298534-.1616166-.9111672-.1082575-.2813139-.2549952-.5290148-.4396999-.7420687-.1847047-.2130538-.4037851-.3857722-.6557018-.517121-.2519168-.1318658-.522817-.2063313-.8111617-.2249476v-.0268903c.4863892-.1639274.8829913-.4204194 1.1898064-.768959.306302-.3495738.4602226-.8010204.4602226-1.354857 0-.4080085-.074908-.7643049-.2236979-1.068372-.14879-.3040672-.3514521-.5533195-.6084995-.7487912-.2570475-.1949547-.5633495-.3423341-.9194192-.4421385-.3560696-.0998043-.7413843-.1499651-1.1559438-.1499651h-3.3257114zm1.2980639-8.4942297h2.0415004c.5223039 0 .9055663.141174 1.1487608.4219707.2437077.2813138.365305.6127884.365305.9939066 0 .2632146-.0472024.4855766-.1421201.6670861-.0944046.1815095-.2231849.3314746-.3853146.448861-.1621297.1184207-.351452.2016772-.567967.251838-.216002.0501607-.4458568.0749825-.6890513.0749825h-1.7711132zm0 4.0014823h1.9199031c.6305614 0 1.1308034.1437597 1.5002129.4297276.3694095.2849337.5546273.713627.5546273 1.2860799 0 .3449198-.0723427.6215795-.2160019.8299793-.1446854.209434-.3201549.3749127-.5279477.4974704-.2072798.1220405-.4304647.2037457-.6685286.2445982-.2396031.0408526-.4581703.0615374-.6562149.0615374h-1.9060502zm10.1890313-5.1448369v6.1118532c0 .5631448.094405 1.0735432.283727 1.5317125.189836.457652.450475.8553181.783969 1.1909296.333495.3356116.725479.5946892 1.176467.7756816.450474.1815094.936863.2725227 1.45968.2725227s1.00972-.0910133 1.460194-.2725227c.450474-.1809924.842972-.44007 1.176466-.7756816.333495-.3356115.594647-.7332776.783969-1.1909296.189836-.4581693.283727-.9685677.283727-1.5317125v-6.1118532h-1.29755v5.9075904c0 .2999302-.040533.6107199-.121085.9328863-.082091.3221664-.217028.6189939-.405837.8909995-.189835.2725228-.437648.4948848-.74395.6670861-.306815.1722013-.684946.2585605-1.135934.2585605-.449961 0-.829119-.0863592-1.134908-.2585605-.306815-.1722013-.554114-.3945633-.743949-.6670861-.189323-.2720056-.32426-.5688331-.405838-.8909995-.081065-.3221664-.121597-.6329561-.121597-.9328863v-5.9075904zm12.851345 9.6375843h1.297038v-4.2471149h1.446854l2.433485 4.2471149h1.622836l-2.718238-4.3965629c.360687-.0361984.687512-.1339343.980474-.2926904.29245-.1587562.540775-.3542279.743437-.585381.203175-.2316702.358122-.4902307.466379-.7761987.108258-.2854508.162643-.5827953.162643-.8915166 0-.299413-.045663-.6102028-.13545-.9323692-.0903-.3221664-.249864-.6127884-.480232-.8713489-.229855-.2585605-.542827-.4716143-.939429-.6396787-.396602-.1675472-.901462-.2518379-1.514066-.2518379h-3.365731zm1.297038-8.4942297h1.703388c.25243 0 .502294.0206848.75062.0615374.248325.0408525.468431.115318.662371.2244305s.3494.2652831.46638.4695459.175982.4695458.175982.7963663-.059002.5921036-.175982.7963664-.27244.3604333-.46638.4690287c-.19394.1091126-.414046.1846122-.662371.2254648-.248326.0403354-.49819.0610203-.75062.0610203h-1.703388zm14.772274 3.1037603v1.2245425h2.123079v2.6823067c-.289371.1634102-.638258.2875193-1.047687.3738785-.410968.0863592-.845537.1292802-1.305246.1292802-.53154 0-1.022546-.0972187-1.473021-.2921733-.4515-.1949547-.843485-.4648918-1.176466-.8098115-.334008-.3449197-.59516-.7508597-.784482-1.2183371-.189323-.4674774-.283214-.974256-.283214-1.5177502 0-.5264292.085169-1.0233825.256534-1.4908599.171365-.4669602.414047-.8734174.729584-1.2183371.315537-.3444026.694182-.6189938 1.135934-.8232566.441239-.2042628.936863-.3066528 1.486873-.3066528.486902 0 .950716.0749826 1.392982.2249477.441239.1494479.859903.4152481 1.257018.7963663l.918906-.9939066c-.378132-.3899092-.847076-.696562-1.405295-.918924-.559245-.222362-1.28062-.333543-2.163611-.333543-.730097 0-1.401704.1292802-2.014308.3883578-.612604.2585605-1.137986.6148569-1.574607 1.068372-.437648.4540323-.780378.9892525-1.02819 1.6061779-.247812.6174425-.371462 1.2840115-.371462 2.0012583 0 .6805313.114927 1.3269325.344782 1.9397209.229855.6122713.56335 1.1500771 1.000484 1.6129004.437135.4628233.973805.8304964 1.608471 1.102502.635692.2725228 1.359119.4085256 2.17028.4085256.288345 0 .596699-.0191334.926089-.0542977.328877-.0367156.65365-.094116.973805-.1706499.319642-.0765339.627996-.1701328.925576-.2787282.297066-.1091126.562836-.2358072.797308-.3811182v-4.7507907z"/><path d="m.239887 46.4949323h3.30408809c.47105336 0 .91059986-.056788 1.31863951-.1703638.40803964-.1135759.76597821-.2799546 1.07381571-.4981398.30835401-.2186833.55111177-.4876788.72775678-.8064882.17664501-.3193076.26496752-.6884291.26496752-1.1083609 0-.3143262-.05423312-.6072324-.16321586-.8782204-.10846623-.270988-.25618691-.5090988-.44161252-.7148305-.18594212-.2052336-.40597362-.3716123-.65957801-.4981398-.25412089-.1265275-.52580298-.1987577-.81556278-.2166908v-.0259032c.48913107-.1574122.88787361-.4044895 1.19622761-.741232.30783751-.3362443.46227276-.7711203.46227276-1.304628 0-.3930322-.07489335-.7362505-.22416355-1.0291567-.1497867-.2929061-.35380652-.5330095-.61205946-.7213063-.25825294-.1877987-.56660695-.3297685-.92454552-.4259095s-.74531798-.1444605-1.16213822-.1444605h-3.34489206zm1.30521035-8.1824435h2.05311086c.52528648 0 .91111637.1359922 1.15542365.4064821.24482378.270988.36723567.5902956.36723567.9574246 0 .2535531-.04751854.4677532-.14255562.6426002-.09555358.1748471-.22468005.3193076-.38789591.4323853-.16269935.114074-.35329002.1947727-.57073899.2425941-.21744898.0483195-.44884361.0722302-.6936674.0722302h-1.78091226zm0 3.8551035h1.93069897c.63426921 0 1.13734594.1379847 1.50923017.413456.37136772.2749731.55730984.687931.55730984 1.2388735 0 .3322593-.07282733.598764-.21744897.8000125-.14513816.2012484-.32178317.3606531-.53045154.4787123-.20866837.1175609-.43283192.196267-.67300716.2356201-.24017523.039353-.46020673.0592786-.6590615.0592786h-1.91726981zm10.35490985 4.32734h6.4578729v-1.1800931h-5.1526626v-2.976385h4.567978v-1.1805911h-4.567978v-2.7666682h4.9078389v-1.180093h-6.2130492zm11.2748067 0h1.3052104v-4.0912217h1.4549971l2.4472048 4.0912217h1.6316421l-2.7328326-4.2351841c.3625871-.0348698.6910848-.1290182.9854932-.2819471.2944083-.1529289.5438807-.3412258.7479005-.5638942.2040198-.2231666.3605211-.4722365.4689873-.7477078.1089828-.2749731.1632159-.5614035.1632159-.8587929 0-.2884229-.0454525-.5878049-.1358411-.8981459-.090905-.3103411-.2515383-.5902956-.482933-.8393655-.2308781-.2490699-.5459467-.4543035-.9446892-.6161989-.3987425-.1613972-.9064678-.242594-1.5226593-.242594h-3.3856961zm1.3052104-8.1824435h1.71325c.2536044 0 .5051427.0199256.7546151.0592787.2489558.039353.4710533.1110851.6662926.2161926.1947227.1051075.351224.2555457.4689873.4523109s.176645.4523109.176645.7671352-.0588817.57037-.176645.7671352-.2742646.3477016-.4689873.4523109c-.1952393.1051075-.4173368.1773378-.6662926.2166908-.2494724.0388549-.5010107.0587805-.7546151.0587805h-1.71325zm10.1276472 8.1824435h5.7239182v-1.1800931h-4.4187078v-8.1037373h-1.3052104zm10.1348783 0h1.3052104v-9.2838304h-1.3052104zm6.8183941 0h1.3052104v-7.6315009h.0268583l5.3571989 7.6315009h1.6585004v-9.2838304h-1.3052104v7.6315008h-.0268583l-5.3029658-7.6315008h-1.7127335z"/></g></svg>